HIERARCHY
ROOT hip
{
  OFFSET 0 0 0
  CHANNELS 6 Xposition Yposition Zposition Zrotation Yrotation Xrotation
  JOINT abdomen
  {
    OFFSET 0 20.6881 -0.73152
    CHANNELS 3 Zrotation Xrotation Yrotation
    JOINT chest
    {
      OFFSET 0 11.7043 -0.48768
      CHANNELS 3 Zrotation Xrotation Yrotation
      JOINT neck
      {
        OFFSET 0 22.1894 -2.19456
        CHANNELS 3 Zrotation Xrotation Yrotation
        JOINT head
        {
          OFFSET -0.24384 7.07133 1.2192
          CHANNELS 3 Zrotation Xrotation Yrotation
          JOINT leftEye
          {
            OFFSET 4.14528 8.04674 8.04672
            CHANNELS 3 Zrotation Xrotation Yrotation
            End Site
            {
              OFFSET 1 0 0
            }
          }
          JOINT rightEye
          {
            OFFSET -3.6576 8.04674 8.04672
            CHANNELS 3 Zrotation Xrotation Yrotation
            End Site
            {
              OFFSET 1 0 0
            }
          }
        }
      }
      JOINT rCollar
      {
        OFFSET -2.68224 19.2634 -4.8768
        CHANNELS 3 Zrotation Xrotation Yrotation
        JOINT rShldr
        {
          OFFSET -8.77824 -1.95073 1.46304
          CHANNELS 3 Zrotation Xrotation Yrotation
          JOINT rForeArm
          {
            OFFSET -28.1742 -1.7115 0.48768
            CHANNELS 3 Zrotation Xrotation Yrotation
            JOINT rHand
            {
              OFFSET -22.5879 0.773209 7.07136
              CHANNELS 3 Zrotation Xrotation Yrotation
              JOINT rThumb1
              {
                OFFSET -1.2192 -0.487915 3.41376
                CHANNELS 3 Zrotation Xrotation Yrotation
                JOINT rThumb2
                {
                  OFFSET -3.37035 -0.52449 3.41376
                  CHANNELS 3 Zrotation Xrotation Yrotation
                  End Site
                  {
                    OFFSET -1.78271 -1.18214 1.43049
                  }
                }
              }
              JOINT rIndex1
              {
                OFFSET -7.75947 0.938293 5.60832
                CHANNELS 3 Zrotation Xrotation Yrotation
                JOINT rIndex2
                {
                  OFFSET -2.54057 -0.884171 1.56538
                  CHANNELS 3 Zrotation Xrotation Yrotation
                  End Site
                  {
                    OFFSET -1.62519 -0.234802 1.16502
                  }
                }
              }
              JOINT rMid1
              {
                OFFSET -8.24714 1.18213 3.41376
                CHANNELS 3 Zrotation Xrotation Yrotation
                JOINT rMid2
                {
                  OFFSET -3.10165 -0.590103 1.0647
                  CHANNELS 3 Zrotation Xrotation Yrotation
                  End Site
                  {
                    OFFSET -2.48547 -0.328903 0.83742
                  }
                }
              }
              JOINT rRing1
              {
                OFFSET -8.82822 0.546677 1.51678
                CHANNELS 3 Zrotation Xrotation Yrotation
                JOINT rRing2
                {
                  OFFSET -2.60934 -0.819778 -0.0198488
                  CHANNELS 3 Zrotation Xrotation Yrotation
                  End Site
                  {
                    OFFSET -2.33842 -0.294052 0.168128
                  }
                }
              }
              JOINT rPinky1
              {
                OFFSET -8.27202 -0.0477905 -0.4584
                CHANNELS 3 Zrotation Xrotation Yrotation
                JOINT rPinky2
                {
                  OFFSET -1.82734 -0.647385 -0.700984
                  CHANNELS 3 Zrotation Xrotation Yrotation
                  End Site
                  {
                    OFFSET -1.69225 -0.51767 -0.607171
                  }
                }
              }
            }
          }
        }
      }
      JOINT lCollar
      {
        OFFSET 2.68224 19.2634 -4.8768
        CHANNELS 3 Zrotation Xrotation Yrotation
        JOINT lShldr
        {
          OFFSET 8.77824 -1.95073 1.46304
          CHANNELS 3 Zrotation Xrotation Yrotation
          JOINT lForeArm
          {
            OFFSET 28.1742 -1.7115 0.48768
            CHANNELS 3 Zrotation Xrotation Yrotation
            JOINT lHand
            {
              OFFSET 22.5879 0.773209 7.07136
              CHANNELS 3 Zrotation Xrotation Yrotation
              JOINT lThumb1
              {
                OFFSET 1.2192 -0.487915 3.41376
                CHANNELS 3 Zrotation Xrotation Yrotation
                JOINT lThumb2
                {
                  OFFSET 3.37035 -0.52449 3.41376
                  CHANNELS 3 Zrotation Xrotation Yrotation
                  End Site
                  {
                    OFFSET 1.78271 -1.18214 1.43049
                  }
                }
              }
              JOINT lIndex1
              {
                OFFSET 7.75947 0.938293 5.60832
                CHANNELS 3 Zrotation Xrotation Yrotation
                JOINT lIndex2
                {
                  OFFSET 2.54057 -0.884171 1.56538
                  CHANNELS 3 Zrotation Xrotation Yrotation
                  End Site
                  {
                    OFFSET 1.62519 -0.234802 1.16502
                  }
                }
              }
              JOINT lMid1
              {
                OFFSET 8.24714 1.18213 3.41376
                CHANNELS 3 Zrotation Xrotation Yrotation
                JOINT lMid2
                {
                  OFFSET 3.10165 -0.590103 1.0647
                  CHANNELS 3 Zrotation Xrotation Yrotation
                  End Site
                  {
                    OFFSET 2.48547 -0.328903 0.83742
                  }
                }
              }
              JOINT lRing1
              {
                OFFSET 8.82822 0.546677 1.51678
                CHANNELS 3 Zrotation Xrotation Yrotation
                JOINT lRing2
                {
                  OFFSET 2.60934 -0.819778 -0.0198488
                  CHANNELS 3 Zrotation Xrotation Yrotation
                  End Site
                  {
                    OFFSET 2.33842 -0.294052 0.168128
                  }
                }
              }
              JOINT lPinky1
              {
                OFFSET 8.27202 -0.0477905 -0.4584
                CHANNELS 3 Zrotation Xrotation Yrotation
                JOINT lPinky2
                {
                  OFFSET 1.82734 -0.647385 -0.700984
                  CHANNELS 3 Zrotation Xrotation Yrotation
                  End Site
                  {
                    OFFSET 1.69225 -0.51767 -0.607171
                  }
                }
              }
            }
          }
        }
      }
    }
  }
  JOINT rButtock
  {
    OFFSET -8.77824 4.35084 1.2192
    CHANNELS 3 Zrotation Xrotation Yrotation
    JOINT rThigh
    {
      OFFSET 0 -1.70687 -2.19456
      CHANNELS 3 Zrotation Xrotation Yrotation
      JOINT rShin
      {
        OFFSET 0 -36.8199 0.73152
        CHANNELS 3 Zrotation Xrotation Yrotation
        JOINT rFoot
        {
          OFFSET 0.73152 -45.1104 -5.12064
          CHANNELS 3 Zrotation Xrotation Yrotation
          End Site
          {
            OFFSET -1.1221 -3.69964 12.103
          }
        }
      }
    }
  }
  JOINT lButtock
  {
    OFFSET 8.77824 4.35084 1.2192
    CHANNELS 3 Zrotation Xrotation Yrotation
    JOINT lThigh
    {
      OFFSET 0 -1.70687 -2.19456
      CHANNELS 3 Zrotation Xrotation Yrotation
      JOINT lShin
      {
        OFFSET 0 -36.8199 0.73152
        CHANNELS 3 Zrotation Xrotation Yrotation
        JOINT lFoot
        {
          OFFSET -0.73152 -45.1104 -5.12064
          CHANNELS 3 Zrotation Xrotation Yrotation
          End Site
          {
            OFFSET 1.1221 -3.69964 12.103
          }
        }
      }
    }
  }
}
MOTION
Frames:	7
Frame Time:	0.03333
0.0 0.0 0.0 0.0 0.0 0.0 0.0 0.0 0.0 0.0 0.0 0.0 0.0 0.0 0.0 0.0 0.0 0.0 0.0 0.0 0.0 0.0 0.0 0.0 0.0 0.0 0.0 0.0 0.0 0.0 0.0 0.0 0.0 0.0 0.0 0.0 0.0 0.0 0.0 0.0 0.0 0.0 0.0 0.0 0.0 0.0 0.0 0.0 0.0 0.0 0.0 0.0 0.0 0.0 0.0 0.0 0.0 0.0 0.0 0.0 0.0 0.0 0.0 0.0 0.0 0.0 0.0 0.0 0.0 0.0 0.0 0.0 0.0 0.0 0.0 0.0 0.0 0.0 0.0 0.0 0.0 0.0 0.0 0.0 0.0 0.0 0.0 0.0 0.0 0.0 0.0 0.0 0.0 0.0 0.0 0.0 0.0 0.0 0.0 0.0 0.0 0.0 0.0 0.0 0.0 0.0 0.0 0.0 0.0 0.0 0.0 0.0 0.0 0.0 0.0 0.0 0.0 0.0 0.0 0.0 0.0 0.0 0.0 0.0 0.0 0.0 0.0 0.0 0.0 0.0 0.0 0.0
-2.5854 65.00489999999999 -13.4083 -121.443041 -63.947482 123.796903 16.803756 5.234615 -0.860513 -0.33802 -9.878831 9.33865 -8.32217 13.061118 -94.909137 22.870696 12.20583 76.341433 -0.00338 0.0 -0.000343 -0.00338 0.0 -0.000343 -0.165519 0.979049 0.219971 -131.762847 25.299207 149.808084 -5.942546 16.749303 -98.66456 -167.422538 2.526038 141.877625 3.024646 -3.006786 -0.38728 -109.767067 5.954042 99.746211 29.397573 -49.646509 -4.160648 -156.410348 -13.546908 112.90468 -86.295755 60.959664 77.856956 -7.212998 26.185022 6.248484 -145.120156 0.185525 -179.186623 11.94559 52.755864 -2.721927 -132.781388 -17.595922 -130.285669 -159.086174 49.417562 -147.066265 33.844711 -85.665263 55.262133 -4.472094 13.999511 2.665927 12.1785 51.554232 -88.349273 7.182324 -18.870757 5.088175 121.364342 30.329435 -71.957951 27.570477 -16.788932 -28.969244 155.194018 -24.299936 -122.142529 4.410314 28.270569 1.818114 -89.035316 -81.393042 -59.759634 34.753122 55.010761 -29.201532 -0.002644 0.633134 -0.198948 -11.240618 -18.413337 2.242257 156.377396 53.734085 150.12118 -0.691515 -2.299084 2.439253 -0.0 -0.000237 -0.001117 10.665741 -22.736634 51.117663 57.780098 29.351626 122.880082 45.174425 14.557109 160.459525 0.000498 0.001263 0.000249 1.501806 -52.833582 -3.642891 -58.866991 70.162686 151.237084 23.529754 55.328495 -89.359519
-3.8042 63.746199999999995 -19.3432 -126.817431 -62.48249 127.926849 15.646332 5.535697 -0.0 0.582463 -8.490103 10.733175 0.138498 -0.598593 -0.455351 2.762096 -7.855631 -12.04442 0.001284 0.0 0.004258 9.5e-05 -0.0 -0.00106 4.239293 -44.742788 -8.647407 31.302812 -12.957378 6.220191 -37.842655 52.798354 111.123931 -2.311685 -20.492876 -3.815605 93.027855 -51.084047 40.501697 -161.428138 -26.569927 125.963594 -166.82311 -43.973594 122.060981 -86.126661 55.959771 70.18325 68.985144 -80.153592 40.579801 -172.382421 -31.321468 143.883225 -145.118971 0.267866 -179.212228 10.242826 0.376253 -8.949296 -126.796293 -26.619529 -124.513068 -151.325728 25.898582 -144.829796 83.951269 68.258845 -87.085816 132.151238 55.133034 -142.808759 161.435657 51.998615 132.619721 8.716208 -32.47181 7.726024 175.198009 -12.846204 -89.80743 117.388505 15.563127 -54.660292 127.617017 18.962866 -107.327731 -45.116781 -54.722731 -3.478818 161.519695 -9.304171 -143.625198 11.6523 33.305149 -9.515201 0.021092 -1.727224 0.540637 156.325585 -42.787224 -177.041158 144.258344 9.236634 141.01244 141.562665 -3.965351 137.249622 -0.004848 -0.000133 -0.004848 15.316756 -20.060628 5.658523 28.970547 53.862142 77.307285 163.061987 74.796789 103.55705 -0.004848 -0.000133 -0.004848 -7.811359 -45.851462 -5.730057 -50.883979 49.680971 -53.909961 -26.161961 -1.826876 107.041942
-4.9526 62.6433 -24.7681 -131.087868 -60.672643 132.164666 16.586918 1.488127 -97.501382 4.658157 -0.509899 109.601735 -4.789825 14.821735 -114.673608 16.681925 17.836512 103.103816 -0.002103 0.0 -0.003662 -0.000975 -0.0 0.001718 -0.000455 -1.8e-05 -0.000172 99.864529 -71.17706 74.33184 74.04889 -84.977337 -49.96743 169.656681 -20.146484 143.289183 71.831574 -48.263779 25.791098 -24.458054 -2.184665 -13.553012 5.363433 -9.171626 -2.724117 -5.885167 23.215198 6.633575 -167.375024 -28.008344 145.270067 -163.43485 -4.984954 143.001222 -145.098469 -1.60548 -178.624612 -152.279629 -24.839053 -175.379177 -15.564502 -28.356443 -14.850257 46.052436 83.351777 -8.135265 142.973534 39.431441 -147.389643 153.047362 26.812946 -160.330882 -168.445322 -52.373586 -70.833665 160.645976 18.837861 -136.51254 -93.509555 -51.104569 -40.842052 160.27619 -22.53149 -124.277889 -2.325104 -3.867887 1.260375 65.474934 48.475054 -50.844727 -12.029039 -37.299255 3.218442 -3.312191 -0.626912 0.061325 145.099432 -1.52227 178.650333 -12.049417 29.596316 5.639924 5.157819 -11.885901 4.836621 112.925003 -43.852339 112.091309 0.000488 0.000293 -0.000628 15.979809 -19.597665 118.356463 59.209624 -29.920746 148.00904 -173.336894 44.682873 -88.262243 179.998368 75.750356 -0.0 168.672276 32.194617 63.182121 27.266146 47.935363 -106.803772 116.102363 -27.967538 -99.515919
-6.2488 62.1231 -29.6376 -135.929683 -57.49703 137.356114 10.724264 0.028365 89.999424 -3.912333 -3.57567 -75.315329 13.66502 10.337528 104.431441 -15.267545 10.782973 -111.743389 0.000546 -0.0 -0.001616 0.000546 -0.0 -0.001616 -159.221918 -48.725078 170.566924 8.428763 14.694887 -5.1195 -133.363092 53.266678 -116.20895 -0.710908 12.355502 1.440448 -175.197869 -12.846081 89.809046 -145.568653 8.582002 75.720324 -160.0146 -33.012247 122.697701 0.527879 22.452285 -4.267353 23.902276 -61.3341 1.399222 -42.329689 58.458719 36.203784 -145.09901 -1.522012 -178.64981 -156.364716 15.236155 178.987728 -143.938626 8.264494 -140.720937 -147.009593 10.324144 -141.372992 29.635538 58.071368 -32.036368 74.549513 84.410132 -93.391575 168.195361 -14.45503 105.155567 6.360876 -4.87741 2.933361 93.743176 37.963954 -53.548976 132.848778 -20.116384 -77.323565 46.207281 39.653965 -36.317687 161.985052 -7.274865 -111.999982 -5.894231 -18.351795 2.543747 18.030586 42.275802 -14.41765 70.37963 -72.129748 87.280246 -5.531932 -62.305825 18.848296 150.576781 31.03439 146.362955 153.582859 29.335834 145.090157 -0.000233 0.000927 0.000299 16.94972 -16.021186 85.349652 66.401097 -15.085567 62.484084 66.202393 54.699216 -178.173738 -0.000233 0.000927 0.000299 -9.436887 -43.314874 -180.0 34.592325 -53.93327 79.234796 -47.872223 14.941944 121.626105
-7.6307 61.76970000000001 -33.614 -143.569449 -54.412498 145.1957 7.778529 -2.250707 86.750212 -3.01219 -3.011532 -68.807985 13.026378 10.884141 108.526354 -14.221495 9.265043 -115.728297 -0.002144 0.0 -5.5e-05 -0.002144 0.0 -5.5e-05 -155.613622 -4.236336 161.99135 7.801402 -64.524632 10.645667 -16.217378 72.553899 -128.66575 157.974571 -36.711082 138.784731 4.530083 -4.514416 -0.521779 34.179541 -64.018137 -21.389756 -46.207737 39.653564 36.317916 -177.868336 -30.421024 110.029042 89.034313 -81.394649 59.760231 -163.744256 -5.562634 143.232721 -145.100089 -1.521538 -178.651037 -150.915116 -32.032694 -173.809321 32.029334 83.319941 6.216821 39.898576 80.180673 -4.616346 142.700599 39.918189 -147.099337 145.518949 22.733851 -165.369996 157.271155 -63.401892 -68.555918 -177.093677 -18.008141 -143.410061 -51.059886 -41.203944 -12.856605 49.557798 33.003906 -20.815311 149.817326 -14.317276 -120.600312 86.008938 56.787915 -67.405032 0.057444 0.167878 -0.032422 34.367137 55.163368 -28.968123 0.001205 0.022573 -0.007611 -9.758114 7.249038 -0.880902 157.330512 57.246508 150.511083 143.186807 -2.19646 138.166136 -0.0 0.00084 0.000762 18.492005 -11.933322 -0.0 39.651677 54.973755 83.621943 122.957583 79.077572 138.870263 0.003428 0.00084 0.003428 -4.991314 -40.965128 -3.351976 -37.874603 48.38971 -77.208567 115.504276 7.602535 -116.352925
-9.011700000000001 62.25920000000001 -36.767 -153.006777 -52.625786 154.723327 3.380372 -3.643139 42.909845 -2.418113 -3.631527 -25.009087 8.902134 17.342919 155.526053 -10.243257 19.033455 -159.985912 -0.001544 0.0 -0.000277 -0.001544 0.0 -0.000277 3.783478 -33.886935 -6.5498 24.50483 32.033462 -9.390964 178.965138 -0.145108 18.355866 166.810582 -20.168443 143.902155 -93.744122 37.963666 53.548159 128.381492 -51.785176 57.43583 -152.811912 -19.874074 121.571014 -162.52836 -18.772012 119.59187 0.04767 -0.138751 -0.024801 -163.254756 -4.709776 143.34713 -13.618101 -53.680165 -25.680912 14.243979 -6.722199 -3.032478 -140.386315 -1.530151 -137.473752 1.474579 -2.723184 -2.823634 -4.22568 -44.097108 8.515764 135.04935 75.218043 -132.981808 -46.283412 -1.008595 -147.4485 50.713945 56.217338 -30.314963 -51.059501 -41.20394 -12.857186 103.408854 35.083343 -76.759937 148.88605 -12.609203 -120.246074 86.110842 56.775493 -67.335662 -2.098045 -6.305713 1.08211 -11.347261 -24.941059 1.561356 77.741431 72.90335 -95.870025 101.434128 82.684644 -110.534786 -17.605091 61.627848 -12.865363 148.795385 13.132002 143.422796 -0.00021 0.001308 0.000271 16.589987 -10.056748 105.429638 57.370637 -20.636778 176.761921 170.263888 25.182021 -65.789093 179.995359 75.748334 0.003175 178.181672 34.258961 -29.007537 -48.185108 34.878225 121.764728 -112.398198 2.862342 71.781708
